<svg width="32.190369" height="31.807220" viewBox="0 0 32.1904 31.8072" fill="none" xmlns="http://www.w3.org/2000/svg" xmlns:xlink="http://www.w3.org/1999/xlink">
	<desc>
			Created with Pixso.
	</desc>
	<defs/>
	<path id="Vector" d="M16.09 0C7.2 0 0 7.11 0 15.9C0 24.68 7.2 31.8 16.09 31.8C24.98 31.8 32.19 24.68 32.19 15.9C32.19 7.11 24.98 0 16.09 0ZM16.09 29.85C8.32 29.85 2.01 23.57 2.01 15.9C2.01 8.23 8.32 1.98 16.09 1.98C23.86 1.98 30.17 8.23 30.17 15.9C30.17 23.57 23.86 29.85 16.09 29.85ZM14.61 24.86L17.14 24.86L17.14 22.34L14.61 22.34L14.61 24.86ZM16.06 6.94C14.59 6.94 13.37 7.33 12.42 8.11C11.46 8.9 11 10.47 11.02 11.77L11.06 11.85L13.37 11.85C13.37 11.07 13.63 9.95 14.16 9.55C14.68 9.15 15.31 8.95 16.06 8.95C16.92 8.95 17.58 9.18 18.04 9.64C18.5 10.1 18.74 10.76 18.74 11.62C18.74 12.34 18.56 12.95 18.22 13.46C17.88 13.97 17.3 14.7 16.49 15.65C15.65 16.39 15.14 16.99 14.94 17.44C14.75 17.9 14.64 18.71 14.64 19.88L17.05 19.88C17.05 19.15 17.1 18.61 17.2 18.26C17.29 17.91 17.56 17.52 18 17.08C18.95 16.17 19.71 15.29 20.29 14.42C20.87 13.56 21.15 12.6 21.15 11.56C21.15 10.1 20.71 8.97 19.82 8.15C18.92 7.34 17.67 6.94 16.06 6.94L16.06 6.94Z" fill="#000000" fill-opacity="1.000000" fill-rule="nonzero"/>
</svg>
