<svg width="30.000000" height="30.000000" viewBox="0 0 30 30" fill="none" xmlns="http://www.w3.org/2000/svg" xmlns:xlink="http://www.w3.org/1999/xlink">
	<desc>
			Created with Pixso.
	</desc>
	<defs>
		<clipPath id="clip8_178">
			<rect id="delete-svgrepo-com 1" width="30.000000" height="30.000000" fill="white" fill-opacity="0"/>
		</clipPath>
	</defs>
	<rect id="delete-svgrepo-com 1" width="30.000000" height="30.000000" fill="#FFFFFF" fill-opacity="0"/>
	<g clip-path="url(#clip8_178)">
		<path id="Vector" d="M0.93 7.07C0.6 7.07 0.35 6.82 0.35 6.49C0.35 6.16 0.6 5.9 0.93 5.9L28.47 5.95C28.8 5.95 29.06 6.21 29.06 6.53C29.06 6.86 28.8 7.12 28.47 7.12L0.93 7.07ZM5.46 8.27C5.46 7.94 5.71 7.68 6.04 7.68C6.37 7.68 6.63 7.94 6.63 8.27L6.63 28.45L23.78 28.26L23.78 8.48C23.78 8.15 24.04 7.89 24.37 7.89C24.7 7.89 24.96 8.15 24.96 8.48L24.96 29.48L5.43 29.69L5.43 8.27L5.46 8.27Z" fill="#000000" fill-opacity="1.000000" fill-rule="nonzero"/>
		<path id="Vector" d="M19.99 25.4C19.66 25.4 19.4 25.14 19.4 24.82L19.4 10.89C19.4 10.57 19.66 10.31 19.99 10.31C20.32 10.31 20.57 10.57 20.57 10.89L20.57 24.82C20.6 25.14 20.32 25.4 19.99 25.4ZM10.75 25.4C10.42 25.4 10.17 25.14 10.17 24.82L10.17 10.89C10.17 10.57 10.42 10.31 10.75 10.31C11.08 10.31 11.34 10.57 11.34 10.89L11.34 24.82C11.36 25.14 11.08 25.4 10.75 25.4ZM15.37 25.4C15.04 25.4 14.78 25.14 14.78 24.82L14.78 10.89C14.78 10.57 15.04 10.31 15.37 10.31C15.7 10.31 15.96 10.57 15.96 10.89L15.96 24.82C15.98 25.14 15.7 25.4 15.37 25.4ZM19.19 6.25L19.19 4.82C19.19 4.31 18.77 3.89 18.25 3.89L12.25 3.89C11.71 3.89 11.32 4.31 11.32 4.85L11.32 6.09L10.14 6.09L10.14 4.85C10.14 3.67 11.1 2.71 12.28 2.71L18.28 2.71C19.45 2.71 20.41 3.67 20.41 4.85L20.41 6.28L19.19 6.28L19.19 6.25Z" fill="#000000" fill-opacity="1.000000" fill-rule="nonzero"/>
	</g>
</svg>
